<?xml version="1.0" encoding="UTF-8"?>
<svg version="1.1" xmlns="http://www.w3.org/2000/svg" width="512" height="512">
<path d="M0 0 C7.35809445 6.61990374 12.28143466 14.456427 17.2890625 22.921875 C18.03252647 24.16489047 18.77684858 25.40739303 19.52197266 26.64941406 C21.06342569 29.22010621 22.60121706 31.79293669 24.13671875 34.3671875 C26.9650997 39.10157294 29.83868818 43.80788051 32.71118164 48.515625 C40.10012761 60.62825268 47.36822568 72.80935046 54.59320068 85.02038574 C59.13474 92.6933432 63.70203017 100.3397643 68.48999023 107.86230469 C73.57211538 115.90945521 78.34958698 124.14449786 83.19384766 132.3359375 C89.68522493 143.32621088 89.68522493 143.32621088 96.4140625 154.171875 C101.88456586 162.76553847 107.00895012 171.56849535 112.19384766 180.3359375 C118.68522493 191.32621088 118.68522493 191.32621088 125.4140625 202.171875 C130.88456586 210.76553847 136.00895012 219.56849535 141.19384766 228.3359375 C147.68522493 239.32621088 147.68522493 239.32621088 154.4140625 250.171875 C159.88456586 258.76553847 165.00895012 267.56849535 170.19384766 276.3359375 C176.68522493 287.32621088 176.68522493 287.32621088 183.4140625 298.171875 C188.88113181 306.76014389 194.00376317 315.55690342 199.18377686 324.31982422 C203.71954819 331.99077242 208.26077442 339.64842511 213.0390625 347.171875 C216.28130995 352.29404002 219.40272187 357.47268235 222.4140625 362.734375 C222.78869629 363.37826172 223.16333008 364.02214844 223.54931641 364.68554688 C229.50096638 375.23557142 230.13059873 387.7647487 227.7265625 399.5390625 C223.83694591 410.98101797 216.08341372 421.16050823 205.27734375 426.8125 C198.05748476 429.90291935 191.84392602 431.32307533 183.99472809 431.30609608 C183.25334595 431.30844831 182.51196381 431.31080054 181.74811554 431.31322405 C179.25609388 431.31989751 176.76412456 431.31945632 174.27209473 431.31904602 C172.47038109 431.32234568 170.66866819 431.32607146 168.86695623 431.3301875 C163.90946052 431.34020409 158.95197691 431.34392375 153.9944725 431.34657681 C148.65001664 431.35048088 143.30557035 431.36005916 137.96112061 431.36878967 C125.05090617 431.38855133 112.14069095 431.39861999 99.23046517 431.40751746 C93.15036229 431.41190091 87.07026028 431.41726758 80.99015808 431.42250633 C60.77765331 431.43951843 40.56514908 431.45401248 20.35263824 431.46125507 C15.10748799 431.46316496 9.86233774 431.46508529 4.6171875 431.46704102 C2.66170991 431.46776663 2.66170991 431.46776663 0.66672772 431.4685069 C-20.45034112 431.47680674 -41.5673533 431.50214299 -62.6843974 431.53462169 C-84.36616754 431.56769701 -106.04790888 431.58570427 -127.72970438 431.58889931 C-139.90265828 431.59106398 -152.07552956 431.59980641 -164.24845886 431.62536049 C-174.61578479 431.64707391 -184.98300804 431.6551147 -195.35035414 431.64539371 C-200.63802545 431.6408509 -205.92548492 431.64273435 -211.21312714 431.66215515 C-216.05936944 431.67980067 -220.90524558 431.6787777 -225.75149184 431.66325786 C-227.49921127 431.66088391 -229.24695614 431.6651942 -230.99463671 431.67708651 C-244.94276467 431.76607447 -257.34716711 430.26465971 -268.5859375 421.171875 C-269.19953125 420.69363281 -269.813125 420.21539062 -270.4453125 419.72265625 C-277.1512808 413.83267967 -282.97493143 403.15757058 -283.76293945 394.14819336 C-283.83023952 391.80180752 -283.8708667 389.45656869 -283.8984375 387.109375 C-283.92744141 386.31337891 -283.95644531 385.51738281 -283.98632812 384.69726562 C-284.1146613 372.38715297 -277.80266552 362.53142251 -271.6484375 352.296875 C-270.87944689 351.00271558 -270.11106347 349.70819519 -269.34326172 348.41333008 C-264.55118964 340.35350721 -259.65338226 332.3611394 -254.6796875 324.41210938 C-249.7114074 316.44699202 -244.92789303 308.37604463 -240.1484375 300.296875 C-232.97678937 288.17731144 -225.72289228 276.11320436 -218.37548828 264.09912109 C-215.04314272 258.64825844 -211.71807939 253.19298097 -208.3984375 247.734375 C-208.04686584 247.15642181 -207.69529419 246.57846863 -207.33306885 245.98300171 C-201.0141389 235.58837095 -194.80333968 225.13132337 -188.60977173 214.66165161 C-183.36066592 205.79240026 -178.03227879 196.98373554 -172.56835938 188.24462891 C-167.70621705 180.43568756 -163.01935282 172.52619435 -158.3359375 164.609375 C-152.26415795 154.34733995 -146.15874322 144.10836221 -139.9609375 133.921875 C-139.6135553 133.35076996 -139.2661731 132.77966492 -138.90826416 132.19125366 C-136.12311074 127.61354442 -133.33377962 123.03838523 -130.54418945 118.46337891 C-128.09776628 114.45076353 -125.65320376 110.43702191 -123.2109375 106.421875 C-122.86468323 105.85278412 -122.51842896 105.28369324 -122.16168213 104.69735718 C-115.89945423 94.39845786 -109.74760172 84.03577587 -103.60995483 73.66229248 C-98.34095003 64.76100887 -93.01684086 55.90274609 -87.51342773 47.14355469 C-84.29686789 42.00478641 -81.19214949 36.81186901 -78.140625 31.57421875 C-76.95115359 29.54594503 -75.76061319 27.51830203 -74.56985474 25.49078369 C-73.80355063 24.17825458 -73.04263579 22.86256036 -72.28781128 21.543396 C-64.15661673 7.33764951 -54.79577527 -3.18520553 -38.7109375 -8.203125 C-24.77574113 -10.97285347 -11.5046732 -8.21181621 0 0 Z M-39.12670898 28.13452148 C-43.62659838 34.56035551 -47.66133618 41.21061977 -51.57739258 48.00271606 C-53.43566816 51.22404124 -55.31002359 54.4359914 -57.18359375 57.6484375 C-57.55908356 58.29279251 -57.93457336 58.93714752 -58.32144165 59.60102844 C-61.67829899 65.35175525 -65.11240242 71.05335024 -68.5859375 76.734375 C-69.42777588 78.11157715 -69.42777588 78.11157715 -70.28662109 79.51660156 C-71.44525585 81.41016427 -72.60444363 83.3033887 -73.76416016 85.19628906 C-77.11017703 90.66147985 -80.44414242 96.13398739 -83.7734375 101.609375 C-84.12482788 102.18705627 -84.47621826 102.76473755 -84.83825684 103.35992432 C-91.15738173 113.75482354 -97.3683669 124.21214194 -103.56210327 134.68209839 C-108.80902797 143.54766438 -114.13454938 152.35310166 -119.59692383 161.08813477 C-124.52591849 169.00346116 -129.27540811 177.02229271 -134.0234375 185.046875 C-141.19535071 197.16628413 -148.44897996 209.23054112 -155.79638672 221.24462891 C-159.12873228 226.69549156 -162.45379561 232.15076903 -165.7734375 237.609375 C-166.12500916 238.18732819 -166.47658081 238.76528137 -166.83880615 239.36074829 C-173.1577361 249.75537905 -179.36853532 260.21242663 -185.56210327 270.68209839 C-190.80902797 279.54766438 -196.13454938 288.35310166 -201.59692383 297.08813477 C-206.95391472 305.69076761 -212.10050475 314.41629898 -217.26052856 323.13781738 C-223.01010735 332.85457277 -228.81440774 342.53398211 -234.70166016 352.16821289 C-238.62666122 358.59141936 -242.52428565 365.03036247 -246.3984375 371.484375 C-247.16401978 372.75812988 -247.16401978 372.75812988 -247.94506836 374.05761719 C-248.41050049 374.83395508 -248.87593262 375.61029297 -249.35546875 376.41015625 C-249.96805542 377.431698 -249.96805542 377.431698 -250.59301758 378.47387695 C-253.05699676 382.68754187 -253.1704486 386.34965842 -252.5859375 391.171875 C-250.33264395 395.67846211 -248.08967773 397.99570101 -243.5859375 400.171875 C-240.11451942 400.6228889 -240.11451942 400.6228889 -236.24354744 400.55498505 C-235.51049796 400.55994456 -234.77744848 400.56490408 -234.02218539 400.57001388 C-231.55840771 400.58299844 -229.09516945 400.57457643 -226.63137817 400.56628418 C-224.85013407 400.57117174 -223.06889314 400.57736091 -221.28765762 400.58474207 C-216.38694131 400.60118192 -211.48638544 400.59881544 -206.58565116 400.5933671 C-201.30264534 400.59070188 -196.01968277 400.60521913 -190.73669434 400.61746216 C-180.38438496 400.63853985 -170.03213156 400.64305567 -159.67980327 400.64127427 C-151.26702658 400.63996782 -142.85426738 400.64376479 -134.44149399 400.65119934 C-132.02031291 400.65329848 -129.59913182 400.65539608 -127.17795074 400.65749216 C-125.97294642 400.65853569 -124.76794209 400.65957922 -123.52642249 400.66065437 C-100.72497079 400.67956616 -77.92355126 400.67850365 -55.12209497 400.67168504 C-34.25314393 400.66610884 -13.38431563 400.68693668 7.48460673 400.72004551 C28.90193444 400.75376123 50.31920332 400.76895348 71.73655808 400.76432848 C83.76513066 400.76208165 95.79358979 400.76735813 107.82213974 400.79222107 C118.06230555 400.81320681 128.3022957 400.81685326 138.54246865 400.79792148 C143.76867593 400.78874687 148.99455547 400.78767346 154.22073746 400.80827713 C159.00383756 400.82692569 163.7863401 400.8225525 168.56941701 400.79973131 C170.30087543 400.79553005 172.03237911 400.79979659 173.76378976 400.81332725 C176.11658027 400.83046347 178.46727872 400.81681043 180.81999016 400.79549408 C182.12693521 400.79576646 183.43388027 400.79603885 184.78042972 400.79631948 C189.29564145 400.02037452 192.05894587 398.22321836 195.4140625 395.171875 C197.58424721 391.95903172 198.07150085 388.79299855 197.98706055 384.8984375 C197.24097906 381.34827215 195.71770467 378.79252863 193.87109375 375.671875 C193.51204453 375.06046661 193.1529953 374.44905823 192.7830658 373.81912231 C191.66991793 371.9306404 190.54382844 370.05045372 189.4140625 368.171875 C188.76147461 367.07987793 188.10888672 365.98788086 187.43652344 364.86279297 C185.46280725 361.58277909 183.47216571 358.3136144 181.4765625 355.046875 C180.7365972 353.8318392 179.99685681 352.61666641 179.25732422 351.40136719 C176.97825468 347.65697187 174.69635233 343.91430808 172.4140625 340.171875 C169.62005625 335.58996435 166.82786147 331.00695759 164.0390625 326.421875 C163.69380524 325.85441559 163.34854797 325.28695618 162.99282837 324.70230103 C156.72920421 314.40112188 150.57539873 304.03647059 144.43707275 293.66027832 C139.19344535 284.80027459 133.87299281 275.99921462 128.41186523 267.27099609 C122.95206346 258.50673602 117.71799013 249.60994638 112.46289062 240.72216797 C107.84609273 232.91646638 103.20937012 225.13420587 98.33911133 217.4831543 C93.25695561 209.43523257 88.47888006 201.19983053 83.63427734 193.0078125 C77.14283193 182.01758097 77.14283193 182.01758097 70.4140625 171.171875 C65.45989671 163.3864376 60.79768579 155.42677517 56.1015625 147.484375 C50.78636485 138.49510596 45.45397928 129.52528577 39.9140625 120.671875 C33.93516674 111.1169264 28.19916786 101.42374658 22.46289062 91.72216797 C18.18644292 84.49190245 13.91155035 77.26767304 9.4140625 70.171875 C6.10101263 64.92541573 2.88015059 59.63342579 -0.265625 54.28515625 C-1.12623177 52.82873449 -1.9869106 51.37235531 -2.84765625 49.91601562 C-4.566033 47.00476646 -6.27858958 44.09018425 -7.98828125 41.17382812 C-8.78896407 39.81504616 -9.58974142 38.45631989 -10.390625 37.09765625 C-10.75380829 36.47433914 -11.11699158 35.85102203 -11.49118042 35.20881653 C-15.02149704 29.23447774 -17.91184676 24.65830096 -24.5859375 22.171875 C-31.1023496 21.35732349 -35.02823654 22.91385598 -39.12670898 28.13452148 Z " fill="#000000" transform="translate(283.5859375,44.828125)"/>
</svg>
